<svg width="1324" height="1708" viewBox="0 0 1324 1708" fill="none" xmlns="http://www.w3.org/2000/svg">
<rect x="10.926" y="2.5" width="1310.4" height="1691" fill="#00604E" stroke="#FCF9E5" stroke-width="5"/>
<line y1="269.166" x2="23.4056" y2="269.166" stroke="#FCF9E5" stroke-width="5"/>
<line x1="720.893" y1="269.166" x2="744.299" y2="269.166" stroke="#FCF9E5" stroke-width="5"/>
<line x1="49.3112" y1="1110.58" x2="49.3112" y2="1134.49" stroke="#FCF9E5" stroke-width="5"/>
<line x1="310.518" y1="1110.58" x2="310.518" y2="1134.49" stroke="#FCF9E5" stroke-width="5"/>
<line x1="794.855" y1="1183.65" x2="818.26" y2="1183.65" stroke="#FCF9E5" stroke-width="5"/>
<line x1="1154.49" y1="1707.41" x2="1154.49" y2="1684" stroke="#FCF9E5" stroke-width="5"/>
<line x1="938.492" y1="1707.41" x2="938.492" y2="1684" stroke="#FCF9E5" stroke-width="5"/>
<line x1="794.855" y1="1356.79" x2="818.26" y2="1356.79" stroke="#FCF9E5" stroke-width="5"/>
<line x1="720.893" y1="57.764" x2="744.299" y2="57.764" stroke="#FCF9E5" stroke-width="5"/>
<line x1="12.1709" y1="332.343" x2="274.314" y2="332.343" stroke="#FCF9E5" stroke-width="3"/>
<line y1="-1.5" x2="333.845" y2="-1.5" transform="matrix(0.00280437 0.999996 -0.999996 0.00292759 732.128 0)" stroke="#FCF9E5" stroke-width="3"/>
<line x1="733.064" y1="332.343" x2="1323.82" y2="332.343" stroke="#FCF9E5" stroke-width="3"/>
<line x1="12.1709" y1="1121.51" x2="1323.82" y2="1121.51" stroke="#FCF9E5" stroke-width="3"/>
<line y1="-1.5" x2="572.989" y2="-1.5" transform="matrix(0.00326786 0.999995 -0.999994 0.00341144 806.089 1123.01)" stroke="#FCF9E5" stroke-width="3"/>
</svg>
