<svg width="1384" height="2196" viewBox="0 0 1384 2196" fill="none" xmlns="http://www.w3.org/2000/svg">
<path d="M10 111.333C21.9097 100.531 45.5841 88.06 60.9742 84.2685C74.7751 80.8685 83.8339 70.8807 97.1054 65.4314C124.413 54.2188 152.271 42.2142 178.352 27.7572C211.53 9.36582 248.062 10.0027 284.206 10.0027C369.029 10.0027 451.323 47.4999 536.538 48.976C572.5 49.5989 602.136 63.0833 637.315 68.4627C669.197 73.3378 705.084 75.9385 735.943 86.0007C769.625 96.9832 820.994 98.5877 855.274 88.8154C867.312 85.3836 910.907 62.4548 897.85 40.3153C876.11 3.45499 799.158 33.3867 769.34 33.3867C733.957 33.3867 702.229 56.618 670.126 69.3287C641.088 80.8262 608.842 107.221 584.974 128.871C566.76 145.392 542.548 158.027 528.922 181.269C515.276 204.542 505.218 235.625 505.68 263.329C506.587 317.624 559.568 348.375 604.113 349.071C651.119 349.805 699.24 344.257 744.927 359.03C793.648 374.784 826.899 408.984 862.109 448.02C900.672 490.771 913.874 564.324 919.724 621.884C925.316 676.904 892.093 695.051 857.227 727.978C830.615 753.11 813.41 769.626 777.738 761.971C742.58 754.427 713.13 741.416 679.696 729.061C591.452 696.451 515.085 624.113 418.575 621.884C377.727 620.94 336.181 606.923 301.979 637.257C285.9 651.517 270.579 671.306 266.824 694.201C263.849 712.343 258.09 735.08 249.052 751.362C239.527 768.52 244.74 791.454 237.724 808.956C227.527 834.39 229.963 860.868 222.686 886.686C216.654 908.085 213.897 938.615 213.897 960.952C213.897 1003.98 196.221 1032.54 210.381 1075.71C219.6 1103.81 269.352 1116.24 290.456 1129.4C347.009 1164.67 389.375 1208.03 400.216 1282.27C404.755 1313.34 408.993 1354.57 399.435 1384.9C387.711 1422.1 344.857 1447.96 311.353 1451.58C289.509 1453.95 277.757 1449.84 274.441 1423C270.21 1388.76 278.366 1358.1 291.237 1327.52C328.071 1240.01 455.933 1241.56 527.554 1241.56C567.128 1241.56 609.135 1239.81 648.057 1231.82C694.893 1222.2 740.619 1207.52 787.503 1196.52C823.993 1187.97 858.718 1185.58 895.506 1181.15C908.79 1179.55 940.959 1172 952.144 1183.1C964.922 1195.77 973.237 1218.79 973.237 1237.66C973.237 1272.71 977.952 1306.35 980.463 1341.16C983.531 1383.68 997.845 1422.56 997.845 1465.87C997.845 1508.5 995.124 1550.91 994.33 1593.19C994.009 1610.26 994.299 1631.54 978.315 1640.82C953.41 1655.28 920.562 1658.82 893.163 1661.61C840.275 1666.99 781.488 1666.63 728.717 1662.04C701.523 1659.67 673.107 1653.69 646.299 1647.75C624.786 1642.98 599.611 1646.88 577.747 1646.88C511.132 1646.88 445.1 1639.09 378.342 1639.09C331.335 1639.09 286.228 1653.02 242.021 1670.27C212.641 1681.73 182.445 1715.7 162.923 1742.15C144.871 1766.61 131.027 1788.33 126.01 1820.31C121.679 1847.93 119.217 1879.64 125.229 1907.14C134.282 1948.54 121.141 1983.92 151.4 2016.26C189.068 2056.53 225.152 2087.91 277.175 2104.82C330.456 2122.13 381.576 2141.59 436.543 2152.67C483.388 2162.11 530.878 2181.54 578.529 2184.28C681.653 2190.22 776.745 2181.86 873.242 2141.84C921.283 2121.92 974.428 2096.56 1012.88 2058.27C1050.93 2020.38 1086.8 1980.69 1118.54 1936.15C1139.33 1906.98 1148.87 1865.97 1158.78 1830.92C1164.61 1810.28 1167.58 1776.76 1157.6 1756.66C1152.66 1746.69 1136.01 1745.45 1127.14 1746.91C1117.1 1748.57 1117.55 1766.11 1117.37 1774.63C1117.23 1781.7 1115.04 1792.61 1121.28 1796.93C1146.94 1814.71 1186.64 1801.94 1209.55 1787.19C1269.87 1748.36 1324.59 1705.56 1374 1650.78" stroke="#2A8070" stroke-opacity="0.5" stroke-width="20" stroke-linecap="round"/>
</svg>
